<svg id="visual" viewBox="0 0 900 600" width="900" height="600" xmlns="http://www.w3.org/2000/svg" xmlns:xlink="http://www.w3.org/1999/xlink" version="1.1"><rect x="0" y="0" width="900" height="600" fill="#18450E"></rect><path d="M0 214L21.5 216.7C43 219.3 86 224.7 128.8 226.7C171.7 228.7 214.3 227.3 257.2 241.7C300 256 343 286 385.8 267C428.7 248 471.3 180 514.2 163.7C557 147.3 600 182.7 642.8 183.5C685.7 184.3 728.3 150.7 771.2 154.2C814 157.7 857 198.3 878.5 218.7L900 239L900 601L878.5 601C857 601 814 601 771.2 601C728.3 601 685.7 601 642.8 601C600 601 557 601 514.2 601C471.3 601 428.7 601 385.8 601C343 601 300 601 257.2 601C214.3 601 171.7 601 128.8 601C86 601 43 601 21.5 601L0 601Z" fill="#297818"></path><path d="M0 408L21.5 402.5C43 397 86 386 128.8 365C171.7 344 214.3 313 257.2 302C300 291 343 300 385.8 306.2C428.7 312.3 471.3 315.7 514.2 324C557 332.3 600 345.7 642.8 334.3C685.7 323 728.3 287 771.2 291.2C814 295.3 857 339.7 878.5 361.8L900 384L900 601L878.5 601C857 601 814 601 771.2 601C728.3 601 685.7 601 642.8 601C600 601 557 601 514.2 601C471.3 601 428.7 601 385.8 601C343 601 300 601 257.2 601C214.3 601 171.7 601 128.8 601C86 601 43 601 21.5 601L0 601Z" fill="#408331"></path><path d="M0 459L21.5 448.5C43 438 86 417 128.8 415.3C171.7 413.7 214.3 431.3 257.2 444.3C300 457.3 343 465.7 385.8 468.8C428.7 472 471.3 470 514.2 456.5C557 443 600 418 642.8 418.7C685.7 419.3 728.3 445.7 771.2 447.7C814 449.7 857 427.3 878.5 416.2L900 405L900 601L878.5 601C857 601 814 601 771.2 601C728.3 601 685.7 601 642.8 601C600 601 557 601 514.2 601C471.3 601 428.7 601 385.8 601C343 601 300 601 257.2 601C214.3 601 171.7 601 128.8 601C86 601 43 601 21.5 601L0 601Z" fill="#548e47"></path></svg>